# xmcd
#
# Track frame offsets:
#	188
#	13960
#	30055
#	45255
#	55528
#	71680
#	84863
#	104073
#	117120
#	131065
#	143910
#	158035
#
# Disc length: 2308 seconds
#
# Revision: 1
# Processed by: cddbd v1.5.2PL0 Copyright (c) Steve Scherf et al.
# Submitted via: audiograbber 1.83.01
#
DISCID=9209020c
DTITLE=Swinging Gospel - Not too late
DYEAR=1990
DGENRE=Gospel
TTITLE0=The gospel train
TTITLE1=Up above my head
TTITLE2=This train
TTITLE3=Just little talk with Jesus
TTITLE4=Since I laid my burden down
TTITLE5=There is a bright side somewhere
TTITLE6=Ich höre dich schweigen
TTITLE7=I´m on my way
TTITLE8=Gott ist Liebe
TTITLE9=I´ll fly away
TTITLE10=Joshua fill the battle of Jericho
TTITLE11=Blues und Kummer
EXTD=
EXTT0=
EXTT1=
EXTT2=
EXTT3=
EXTT4=
EXTT5=
EXTT6=
EXTT7=
EXTT8=
EXTT9=
EXTT10=
EXTT11=
PLAYORDER=
